<?xml version="1.0" encoding="iso-8859-1"?>
<!-- Uploaded to: SVG Repo, www.svgrepo.com, Generator: SVG Repo Mixer Tools -->
<svg version="1.1" id="Layer_1" xmlns="http://www.w3.org/2000/svg" xmlns:xlink="http://www.w3.org/1999/xlink" 
	 viewBox="0 0 511.985 511.985" xml:space="preserve">
<rect x="12.8" y="217.597" style="fill:#FEDEA1;" width="256" height="76.8"/>
<rect x="140.817" y="294.397" style="fill:#BFA779;" width="76.8" height="51.2"/>
<path style="fill:#A7B0C0;" d="M76.809,422.405c-21.171,0-38.409-17.229-38.409-38.4c0-21.171,17.237-38.4,38.409-38.4h256.017
	c21.171,0,38.4,17.229,38.4,38.4c0,21.171-17.229,38.4-38.4,38.4H76.809z"/>
<polygon style="fill:#C5DFE2;" points="140.817,217.597 140.817,115.188 238.327,115.188 268.817,176.176 268.817,217.597 "/>
<path style="fill:#BDC4D0;" d="M426.394,316.08c-9.796,0-22.17-2.987-36.753-8.866c-7.868-3.191-13.329-8.491-16.247-15.744
	c-3.439-8.585-3.388-19.541,0.137-32.58l3.226-11.895l85.367,19.678l-7.927,29.457c-2.099,7.979-6.409,13.662-12.783,16.853
	C437.291,315.03,432.239,316.08,426.394,316.08C426.402,316.08,426.402,316.08,426.394,316.08z"/>
<polygon style="fill:#BFA779;" points="268.826,199.489 380.109,88.206 502.537,118.815 494.814,141.898 484.378,140.626 
	397.431,129.584 268.826,286.179 "/>
<path style="fill:#573A32;" d="M25.6,307.205h102.409v25.6h-51.2c-28.237,0-51.2,22.972-51.2,51.2c0,28.237,22.972,51.2,51.2,51.2
	h256.017c28.237,0,51.2-22.972,51.2-51.2c0-28.237-22.972-51.2-51.2-51.2H230.417v-25.6h25.6c7.663,0,14.925-3.43,19.78-9.353
	l127.036-154.684l76.476,9.719l-26.377,98.517l-59.409-13.687l6.554-23.654c1.903-6.81-2.099-13.867-8.9-15.753
	c-6.955-1.826-13.875,2.116-15.753,8.926c0,0-22.639,67.038-13.978,88.832c4.173,10.547,12.279,18.5,23.373,22.989
	c16.205,6.554,30.003,9.822,41.626,9.822c7.825,0,14.703-1.485,20.651-4.446c9.626-4.813,16.375-13.466,19.473-25.011
	l45.201-168.132c1.664-12.8-6.468-24.977-19.132-28.143l-102.409-25.6c-2.057-0.512-4.139-0.768-6.212-0.768
	c-6.707,0-13.244,2.637-18.099,7.501l-85.931,85.931c-0.316-0.845-0.674-1.664-1.075-2.466l-25.6-51.2
	c-4.335-8.678-13.201-14.157-22.895-14.157h-76.809c-14.14,0-25.6,11.46-25.6,25.6v76.809H25.6c-14.14,0-25.6,11.46-25.6,25.6v51.2
	C0,295.736,11.46,307.205,25.6,307.205z M441.839,292.801c-1.527,5.777-4.105,7.697-6.153,8.73
	c-4.301,2.15-15.454,4.224-41.25-6.187c-4.651-1.886-7.552-4.634-9.173-8.661c-2.85-7.117-1.425-16.862,0.623-24.439l60.433,13.926
	L441.839,292.801z M281.626,204.797l102.409-102.409l101.973,25.498l-0.017,0.051L392.03,115.99L281.626,250.424V204.797z
	 M332.826,358.405c14.14,0,25.6,11.46,25.6,25.6s-11.46,25.6-25.6,25.6H76.809c-14.14,0-25.6-11.46-25.6-25.6s11.46-25.6,25.6-25.6
	H332.826z M153.609,332.805v-25.6h51.2v25.6H153.609z M153.609,127.988h76.809l25.6,51.2v25.6H153.609V127.988z M25.6,230.397
	h128.009h102.409v51.2H25.6V230.397z"/>
</svg>