/* XPM */
static char * bench_xpm[] = {
"25 25 61 1",
" 	c #FFFFFF",
".	c #BBBBBB",
"+	c #6C6C6C",
"@	c #424242",
"#	c #212121",
"$	c #898989",
"%	c #ABABAB",
"&	c #6B6B6B",
"*	c #717171",
"=	c #848484",
"-	c #858585",
";	c #707070",
">	c #C7C7C7",
",	c #696969",
"'	c #7F7F7F",
")	c #C6C6C6",
"!	c #CBCBCB",
"~	c #888888",
"{	c #878787",
"]	c #CACACA",
"^	c #E9FAE8",
"/	c #B4F1B0",
"(	c #B0F0AB",
"_	c #E3F9E2",
":	c #4DE734",
"<	c #42E61F",
"[	c #41E61D",
"}	c #E2F9E0",
"|	c #98ED91",
"1	c #57E543",
"2	c #BBD8B6",
"3	c #C5D6C1",
"4	c #BBD8B7",
"5	c #87EB7F",
"6	c #67E458",
"7	c #68E35A",
"8	c #B7F2B3",
"9	c #87E07E",
"0	c #A2DD9B",
"a	c #8BE082",
"b	c #FBFEFB",
"c	c #A6EFA1",
"d	c #F9FEF9",
"e	c #E8FAE7",
"f	c #E1E1E1",
"g	c #CECECE",
"h	c #FBFBFB",
"i	c #BCBCBC",
"j	c #C1C1C1",
"k	c #E8E8E8",
"l	c #9D9D9D",
"m	c #9B9B9B",
"n	c #B9B9B9",
"o	c #CDCDCD",
"p	c #F9F9F9",
"q	c #777777",
"r	c #767676",
"s	c #F8F8F8",
"t	c #FCFCFC",
"u	c #D8D8D8",
"v	c #CCCCCC",
"                         ",
"                         ",
"   .+@@@@@@@@@@@@@@@+.   ",
"  .#$%%%%%%%%%%%%%%%$#.  ",
"  +$                 $&  ",
"  *=                 -;  ",
"  >#,''''''''''''''',#)  ",
"   !~'''''''''''''''{]   ",
"                         ",
"     ^/(((((((((((/^     ",
"    _:<[[[[[[[[[[[<:}    ",
"    |123333333333341|    ",
"    56333333333333375    ",
"    8<900000000000a<8    ",
"    bc<<<<<<<<<<<<<cb    ",
"      deeeeeeeeeeed      ",
"         fgggggf         ",
"       h$#######$h       ",
"       i#jkkkkkj#.       ",
"       l&       +m       ",
"       n#okkkkkg#n       ",
"       pq#######rs       ",
"        tuvvvvvut        ",
"                         ",
"                         "};
