/* XPM */
static char * bench2_xpm[] = {
"25 25 54 1",
" 	c #FFFFFF",
".	c #BBBBBB",
"+	c #6C6C6C",
"@	c #424242",
"#	c #212121",
"$	c #898989",
"%	c #ABABAB",
"&	c #6B6B6B",
"*	c #717171",
"=	c #848484",
"-	c #707070",
";	c #C6C6C6",
">	c #686868",
",	c #7F7F7F",
"'	c #CBCBCB",
")	c #878787",
"!	c #FBE8FF",
"~	c #F4AFFF",
"{	c #F3AAFF",
"]	c #FAE2FF",
"^	c #EB26FF",
"/	c #EB00FF",
"(	c #FAE0FF",
"_	c #F18FFF",
":	c #E834FB",
"<	c #CBA5D0",
"[	c #C6AFC8",
"}	c #EF7CFF",
"|	c #E64AF7",
"1	c #E54CF7",
"2	c #F4B2FF",
"3	c #DE70EC",
"4	c #D68BE0",
"5	c #DD73EB",
"6	c #FEFBFF",
"7	c #F29FFF",
"8	c #FEF9FF",
"9	c #FBE7FF",
"0	c #E0E0E0",
"a	c #CDCDCD",
"b	c #FBFBFB",
"c	c #BCBCBC",
"d	c #C1C1C1",
"e	c #E8E8E8",
"f	c #C2C2C2",
"g	c #9D9D9D",
"h	c #9B9B9B",
"i	c #B9B9B9",
"j	c #F8F8F8",
"k	c #777777",
"l	c #767676",
"m	c #FCFCFC",
"n	c #D8D8D8",
"o	c #CCCCCC",
"                         ",
"                         ",
"   .+@@@@@@@@@@@@@@@+.   ",
"  .#$%%%%%%%%%%%%%%%$#.  ",
"  +$                 $&  ",
"  *=                 =-  ",
"  ;#>,,,,,,,,,,,,,,,>#;  ",
"   '),,,,,,,,,,,,,,,)'   ",
"                         ",
"     !~{{{{{{{{{{{~!     ",
"    ]^/////////////^(    ",
"    _:<[[[[[[[[[[[<:_    ",
"    }|[[[[[[[[[[[[[1}    ",
"    2/3444444444445/2    ",
"    67/////////////76    ",
"      8999999999998      ",
"         0aaaaa0         ",
"       b$#######$b       ",
"       c#deeeeef#.       ",
"       g&       +h       ",
"       i#aeeeeea#i       ",
"       jk#######lj       ",
"        mnooooonm        ",
"                         ",
"                         "};
