/* XPM */
static char * bench3_xpm[] = {
"25 25 77 1",
" 	c #FFFFFF",
".	c #BEBEBE",
"+	c #6D6D6D",
"@	c #505050",
"#	c #BDBDBD",
"$	c #212121",
"%	c #8A8A8A",
"&	c #ACACAC",
"*	c #8B8B8B",
"=	c #6C6C6C",
"-	c #727272",
";	c #818181",
">	c #FEFEFE",
",	c #717171",
"'	c #C6C6C6",
")	c #696969",
"!	c #808080",
"~	c #6B6B6B",
"{	c #CCCCCC",
"]	c #868686",
"^	c #7F7F7F",
"/	c #FBEAFF",
"(	c #F4AFFF",
"_	c #F3AAFF",
":	c #CAF2BF",
"<	c #BFFFAA",
"[	c #C2FFAF",
"}	c #EDFFE8",
"|	c #FADFFF",
"1	c #EB16FF",
"2	c #EB00FF",
"3	c #99E87A",
"4	c #7AFF00",
"5	c #80FF2E",
"6	c #E5FFDE",
"7	c #F08BFF",
"8	c #ED4FFF",
"9	c #FDF0FF",
"0	c #F4FFF1",
"a	c #8BFF4F",
"b	c #AAFF8B",
"c	c #EF7CFF",
"d	c #EF72FF",
"e	c #9CFF72",
"f	c #A1FF7D",
"g	c #F4B6FE",
"h	c #F2A5FE",
"i	c #F6CBFE",
"j	c #DDF5D6",
"k	c #D6FECB",
"l	c #BAFEA3",
"m	c #C5FFB3",
"n	c #FEFBFF",
"o	c #F29DFF",
"p	c #B6FF9D",
"q	c #FBFFFB",
"r	c #FEF8FF",
"s	c #FCF2FD",
"t	c #F6FBF4",
"u	c #F4FDF2",
"v	c #F8FFF7",
"w	c #E3E3E3",
"x	c #D1D1D1",
"y	c #FAFAFA",
"z	c #898989",
"A	c #888888",
"B	c #C3C3C3",
"C	c #E8E8E8",
"D	c #9B9B9B",
"E	c #999999",
"F	c #B9B9B9",
"G	c #CDCDCD",
"H	c #E7E7E7",
"I	c #F8F8F8",
"J	c #787878",
"K	c #FCFCFC",
"L	c #D8D8D8",
"                         ",
"                         ",
"   .+@@@@@@@@@@@@@@@+#   ",
"  #$%&&&&&&&&&&&&&&&%$#  ",
"  +%                 *=  ",
"  -;>               >;,  ",
"  '$)!!!!!!!!!!!!!!!~$'  ",
"   {]^^^^^^^^^^^^^^^]{   ",
"                         ",
"     /(_____:<<<<<[}     ",
"    |1222222344444456    ",
"    789           0ab    ",
"    cd             ef    ",
"    g2hiiiiijkkkkkl4m    ",
"    no2222223444444pq    ",
"      rssssstuuuuuv      ",
"         wxxxxxw         ",
"       yz$$$$$$$Ay       ",
"       .$BCCCCCB$.       ",
"       D)       )E       ",
"       F$GHHHHHG$F       ",
"       IJ$$$$$$$JI       ",
"        KL{{{{{LK        ",
"                         ",
"                         "};
