/* XPM */
static char * pit_xpm[] = {
"25 25 54 1",
" 	c #FFFFFF",
".	c #FEFEFE",
"+	c #C2C2C2",
"@	c #777777",
"#	c #505050",
"$	c #212121",
"%	c #848484",
"&	c #9E9E9E",
"*	c #C3C3C3",
"=	c #858585",
"-	c #7D7D7D",
";	c #7B7B7B",
">	c #FDFDFD",
",	c #797979",
"'	c #7E7E7E",
")	c #CCCCCC",
"!	c #6B6B6B",
"~	c #909090",
"{	c #696969",
"]	c #CDCDCD",
"^	c #D3D3D3",
"/	c #929292",
"(	c #7F7F7F",
"_	c #EDEDED",
":	c #BABABA",
"<	c #ABABAB",
"[	c #E7E7E7",
"}	c #3F3F3F",
"|	c #2A2A2A",
"1	c #9B9B9B",
"2	c #545454",
"3	c #F2F2F2",
"4	c #9C9C9C",
"5	c #878787",
"6	c #C0C0C0",
"7	c #A5A5A5",
"8	c #FCFCFC",
"9	c #ACACAC",
"0	c #373737",
"a	c #ADADAD",
"b	c #F0F0F0",
"c	c #E8E8E8",
"d	c #D6D6D6",
"e	c #8F8F8F",
"f	c #A1A1A1",
"g	c #5E5E5E",
"h	c #A0A0A0",
"i	c #262626",
"j	c #C9C9C9",
"k	c #EFEFEF",
"l	c #FAFAFA",
"m	c #828282",
"n	c #838383",
"o	c #DFDFDF",
"                         ",
"                         ",
"  .+@###############@+.  ",
"  +$%&&&&&&&&&&&&&&&%$*  ",
"  @=                 %@  ",
"  -;>               >,'  ",
"  )$!~~~~~~~~~~~~~~~{$]  ",
"   ^/(((((((((((((((/^   ",
"                         ",
"     _:<<<<<<<<<<<:_     ",
"    [}|###########|}[    ",
"    123           324    ",
"    5-             -5    ",
"    6$7+++++++++++7$6    ",
"    890$$$$$$$$$$$0a8    ",
"      8bbbbbbbbbbb8      ",
"         cdddddc         ",
"       8e$$$$$$$~8       ",
"       *$6[ccc[6$*       ",
"       fg       gh       ",
"       6ijkbbbkji6       ",
"       lm$$$$$$$nl       ",
"        >o)))))o>        ",
"                         ",
"                         "};
